<mxfile host="app.diagrams.net" modified="2021-08-21T16:51:01.598Z" agent="5.0 (Windows NT 10.0; Win64; x64) AppleWebKit/537.36 (KHTML, like Gecko) Chrome/92.0.4515.159 Safari/537.36" etag="XefD-fOb91XpWlBzTLdu" version="14.9.8" type="github">
  <diagram id="g5jMb7HpO-AHkic2RKpR" name="Page-1">
    <mxGraphModel dx="1320" dy="482" grid="1" gridSize="10" guides="1" tooltips="1" connect="1" arrows="1" fold="1" page="1" pageScale="1" pageWidth="827" pageHeight="1169" math="0" shadow="0">
      <root>
        <mxCell id="0" />
        <mxCell id="1" parent="0" />
        <mxCell id="a2o3oEvBNjE2nXLNJ3qG-1" value="El aÃ±o es biciesto" style="rounded=0;whiteSpace=wrap;html=1;" vertex="1" parent="1">
          <mxGeometry x="354" y="40" width="120" height="60" as="geometry" />
        </mxCell>
        <mxCell id="a2o3oEvBNjE2nXLNJ3qG-2" value="START" style="rounded=0;whiteSpace=wrap;html=1;" vertex="1" parent="1">
          <mxGeometry x="354" y="110" width="120" height="60" as="geometry" />
        </mxCell>
        <mxCell id="a2o3oEvBNjE2nXLNJ3qG-6" style="edgeStyle=orthogonalEdgeStyle;rounded=0;orthogonalLoop=1;jettySize=auto;html=1;entryX=0.433;entryY=-0.067;entryDx=0;entryDy=0;entryPerimeter=0;" edge="1" parent="1" source="a2o3oEvBNjE2nXLNJ3qG-3" target="a2o3oEvBNjE2nXLNJ3qG-4">
          <mxGeometry relative="1" as="geometry" />
        </mxCell>
        <mxCell id="a2o3oEvBNjE2nXLNJ3qG-7" style="edgeStyle=orthogonalEdgeStyle;rounded=0;orthogonalLoop=1;jettySize=auto;html=1;entryX=0.5;entryY=0;entryDx=0;entryDy=0;" edge="1" parent="1" source="a2o3oEvBNjE2nXLNJ3qG-3" target="a2o3oEvBNjE2nXLNJ3qG-5">
          <mxGeometry relative="1" as="geometry" />
        </mxCell>
        <mxCell id="a2o3oEvBNjE2nXLNJ3qG-3" value="Divisible por 4" style="rounded=0;whiteSpace=wrap;html=1;" vertex="1" parent="1">
          <mxGeometry x="354" y="190" width="120" height="60" as="geometry" />
        </mxCell>
        <mxCell id="a2o3oEvBNjE2nXLNJ3qG-4" value="No es biciesto" style="rounded=0;whiteSpace=wrap;html=1;fillColor=#f8cecc;strokeColor=#b85450;" vertex="1" parent="1">
          <mxGeometry x="160" y="320" width="120" height="60" as="geometry" />
        </mxCell>
        <mxCell id="a2o3oEvBNjE2nXLNJ3qG-13" style="edgeStyle=orthogonalEdgeStyle;rounded=0;orthogonalLoop=1;jettySize=auto;html=1;entryX=0.5;entryY=0;entryDx=0;entryDy=0;" edge="1" parent="1" source="a2o3oEvBNjE2nXLNJ3qG-5" target="a2o3oEvBNjE2nXLNJ3qG-11">
          <mxGeometry relative="1" as="geometry" />
        </mxCell>
        <mxCell id="a2o3oEvBNjE2nXLNJ3qG-14" style="edgeStyle=orthogonalEdgeStyle;rounded=0;orthogonalLoop=1;jettySize=auto;html=1;" edge="1" parent="1" source="a2o3oEvBNjE2nXLNJ3qG-5" target="a2o3oEvBNjE2nXLNJ3qG-12">
          <mxGeometry relative="1" as="geometry" />
        </mxCell>
        <mxCell id="a2o3oEvBNjE2nXLNJ3qG-5" value="Es divisible por 100" style="rounded=0;whiteSpace=wrap;html=1;" vertex="1" parent="1">
          <mxGeometry x="354" y="390" width="120" height="60" as="geometry" />
        </mxCell>
        <mxCell id="a2o3oEvBNjE2nXLNJ3qG-8" value="si" style="text;html=1;strokeColor=none;fillColor=none;align=center;verticalAlign=middle;whiteSpace=wrap;rounded=0;" vertex="1" parent="1">
          <mxGeometry x="414" y="270" width="40" height="20" as="geometry" />
        </mxCell>
        <mxCell id="a2o3oEvBNjE2nXLNJ3qG-9" value="no" style="text;html=1;strokeColor=none;fillColor=none;align=center;verticalAlign=middle;whiteSpace=wrap;rounded=0;" vertex="1" parent="1">
          <mxGeometry x="210" y="270" width="40" height="20" as="geometry" />
        </mxCell>
        <mxCell id="a2o3oEvBNjE2nXLNJ3qG-11" value="Es biciesto" style="rounded=0;whiteSpace=wrap;html=1;fillColor=#d5e8d4;strokeColor=#82b366;" vertex="1" parent="1">
          <mxGeometry x="354" y="500" width="120" height="60" as="geometry" />
        </mxCell>
        <mxCell id="a2o3oEvBNjE2nXLNJ3qG-22" style="edgeStyle=orthogonalEdgeStyle;rounded=0;orthogonalLoop=1;jettySize=auto;html=1;" edge="1" parent="1" source="a2o3oEvBNjE2nXLNJ3qG-12" target="a2o3oEvBNjE2nXLNJ3qG-20">
          <mxGeometry relative="1" as="geometry" />
        </mxCell>
        <mxCell id="a2o3oEvBNjE2nXLNJ3qG-23" style="edgeStyle=orthogonalEdgeStyle;rounded=0;orthogonalLoop=1;jettySize=auto;html=1;" edge="1" parent="1" source="a2o3oEvBNjE2nXLNJ3qG-12" target="a2o3oEvBNjE2nXLNJ3qG-21">
          <mxGeometry relative="1" as="geometry" />
        </mxCell>
        <mxCell id="a2o3oEvBNjE2nXLNJ3qG-12" value="Es divisible por 400" style="rounded=0;whiteSpace=wrap;html=1;" vertex="1" parent="1">
          <mxGeometry x="550" y="500" width="120" height="60" as="geometry" />
        </mxCell>
        <mxCell id="a2o3oEvBNjE2nXLNJ3qG-18" value="no" style="text;html=1;strokeColor=none;fillColor=none;align=center;verticalAlign=middle;whiteSpace=wrap;rounded=0;" vertex="1" parent="1">
          <mxGeometry x="420" y="460" width="40" height="20" as="geometry" />
        </mxCell>
        <mxCell id="a2o3oEvBNjE2nXLNJ3qG-19" value="si" style="text;html=1;strokeColor=none;fillColor=none;align=center;verticalAlign=middle;whiteSpace=wrap;rounded=0;" vertex="1" parent="1">
          <mxGeometry x="560" y="460" width="40" height="20" as="geometry" />
        </mxCell>
        <mxCell id="a2o3oEvBNjE2nXLNJ3qG-20" value="No es biciesto" style="rounded=0;whiteSpace=wrap;html=1;fillColor=#f8cecc;strokeColor=#b85450;" vertex="1" parent="1">
          <mxGeometry x="430" y="640" width="120" height="60" as="geometry" />
        </mxCell>
        <mxCell id="a2o3oEvBNjE2nXLNJ3qG-21" value="Es biciesto" style="rounded=0;whiteSpace=wrap;html=1;fillColor=#d5e8d4;strokeColor=#82b366;" vertex="1" parent="1">
          <mxGeometry x="670" y="630" width="120" height="60" as="geometry" />
        </mxCell>
        <mxCell id="a2o3oEvBNjE2nXLNJ3qG-24" value="no" style="text;html=1;strokeColor=none;fillColor=none;align=center;verticalAlign=middle;whiteSpace=wrap;rounded=0;" vertex="1" parent="1">
          <mxGeometry x="490" y="575" width="40" height="20" as="geometry" />
        </mxCell>
        <mxCell id="a2o3oEvBNjE2nXLNJ3qG-25" value="si" style="text;html=1;strokeColor=none;fillColor=none;align=center;verticalAlign=middle;whiteSpace=wrap;rounded=0;" vertex="1" parent="1">
          <mxGeometry x="700" y="575" width="40" height="20" as="geometry" />
        </mxCell>
      </root>
    </mxGraphModel>
  </diagram>
</mxfile>
